<svg xmlns="http://www.w3.org/2000/svg" width="24" height="24" viewBox="0 0 24 24"><g fill="none" stroke="#828A99" stroke-width="1.7"><path d="M14.134 3.65c.853 0 1.46.278 1.988.899.017.019.494.61.66.815.228.281.674.536.945.536h.41C20.556 5.9 22 7.463 22 9.95v5.85c0 2.241-2 4.2-4.273 4.2H6.273c-2.267 0-4.223-1.953-4.223-4.2V9.95c0-2.496 1.4-4.05 3.814-4.05h.409c.271 0 .717-.255.945-.536.166-.204.643-.796.66-.815.528-.621 1.135-.899 1.988-.899h4.268z"/><circle cx="12" cy="12" r="3.85"/></g></svg>